<mxfile host="app.diagrams.net" agent="Mozilla/5.0 (Windows NT 10.0; Win64; x64) AppleWebKit/537.36 (KHTML, like Gecko) Chrome/99.0.4844.84 Safari/537.36 HBPC/12.1.3.306" version="24.7.17">
  <diagram name="第 1 页" id="IxqYbJSXsMTSJIsKG1-N">
    <mxGraphModel dx="1469" dy="1098" grid="1" gridSize="10" guides="1" tooltips="1" connect="1" arrows="1" fold="1" page="1" pageScale="1" pageWidth="1169" pageHeight="827" math="0" shadow="0">
      <root>
        <mxCell id="0" />
        <mxCell id="1" parent="0" />
        <mxCell id="-iC3halltujksd7gal8T-6" style="edgeStyle=orthogonalEdgeStyle;rounded=0;orthogonalLoop=1;jettySize=auto;html=1;exitX=1;exitY=0.5;exitDx=0;exitDy=0;entryX=0;entryY=0.5;entryDx=0;entryDy=0;" edge="1" parent="1" source="-iC3halltujksd7gal8T-1" target="-iC3halltujksd7gal8T-2">
          <mxGeometry relative="1" as="geometry" />
        </mxCell>
        <mxCell id="-iC3halltujksd7gal8T-1" value="&lt;font style=&quot;font-size: 23px;&quot;&gt;确定行程&lt;/font&gt;" style="rounded=0;whiteSpace=wrap;html=1;" vertex="1" parent="1">
          <mxGeometry x="20" y="360" width="130" height="80" as="geometry" />
        </mxCell>
        <mxCell id="-iC3halltujksd7gal8T-7" style="edgeStyle=orthogonalEdgeStyle;rounded=0;orthogonalLoop=1;jettySize=auto;html=1;exitX=1;exitY=0.5;exitDx=0;exitDy=0;entryX=0;entryY=0.5;entryDx=0;entryDy=0;" edge="1" parent="1" source="-iC3halltujksd7gal8T-2" target="-iC3halltujksd7gal8T-3">
          <mxGeometry relative="1" as="geometry" />
        </mxCell>
        <mxCell id="-iC3halltujksd7gal8T-2" value="&lt;font style=&quot;font-size: 23px;&quot;&gt;查询机票&lt;/font&gt;" style="rounded=0;whiteSpace=wrap;html=1;" vertex="1" parent="1">
          <mxGeometry x="200" y="360" width="130" height="80" as="geometry" />
        </mxCell>
        <mxCell id="-iC3halltujksd7gal8T-8" style="edgeStyle=orthogonalEdgeStyle;rounded=0;orthogonalLoop=1;jettySize=auto;html=1;exitX=1;exitY=0.5;exitDx=0;exitDy=0;entryX=0;entryY=0.5;entryDx=0;entryDy=0;" edge="1" parent="1" source="-iC3halltujksd7gal8T-3" target="-iC3halltujksd7gal8T-5">
          <mxGeometry relative="1" as="geometry" />
        </mxCell>
        <mxCell id="-iC3halltujksd7gal8T-3" value="&lt;font style=&quot;font-size: 23px;&quot;&gt;确定班次&lt;/font&gt;" style="rounded=0;whiteSpace=wrap;html=1;" vertex="1" parent="1">
          <mxGeometry x="380" y="360" width="130" height="80" as="geometry" />
        </mxCell>
        <mxCell id="-iC3halltujksd7gal8T-11" style="edgeStyle=orthogonalEdgeStyle;rounded=0;orthogonalLoop=1;jettySize=auto;html=1;exitX=1;exitY=0.5;exitDx=0;exitDy=0;" edge="1" parent="1" source="-iC3halltujksd7gal8T-5" target="-iC3halltujksd7gal8T-9">
          <mxGeometry relative="1" as="geometry" />
        </mxCell>
        <mxCell id="-iC3halltujksd7gal8T-5" value="&lt;font style=&quot;font-size: 23px;&quot;&gt;选择舱位&lt;/font&gt;" style="rounded=0;whiteSpace=wrap;html=1;" vertex="1" parent="1">
          <mxGeometry x="570" y="360" width="130" height="80" as="geometry" />
        </mxCell>
        <mxCell id="-iC3halltujksd7gal8T-15" style="edgeStyle=orthogonalEdgeStyle;rounded=0;orthogonalLoop=1;jettySize=auto;html=1;exitX=0.5;exitY=1;exitDx=0;exitDy=0;entryX=0.5;entryY=0;entryDx=0;entryDy=0;" edge="1" parent="1" source="-iC3halltujksd7gal8T-9" target="-iC3halltujksd7gal8T-14">
          <mxGeometry relative="1" as="geometry" />
        </mxCell>
        <mxCell id="-iC3halltujksd7gal8T-9" value="&lt;font style=&quot;font-size: 23px;&quot;&gt;提交订单&lt;/font&gt;" style="rounded=0;whiteSpace=wrap;html=1;" vertex="1" parent="1">
          <mxGeometry x="750" y="360" width="130" height="80" as="geometry" />
        </mxCell>
        <mxCell id="-iC3halltujksd7gal8T-16" style="edgeStyle=orthogonalEdgeStyle;rounded=0;orthogonalLoop=1;jettySize=auto;html=1;exitX=0.5;exitY=0;exitDx=0;exitDy=0;entryX=0.5;entryY=0;entryDx=0;entryDy=0;" edge="1" parent="1" source="-iC3halltujksd7gal8T-12" target="-iC3halltujksd7gal8T-1">
          <mxGeometry relative="1" as="geometry" />
        </mxCell>
        <mxCell id="-iC3halltujksd7gal8T-12" value="&lt;font style=&quot;font-size: 23px;&quot;&gt;取消订单&lt;/font&gt;&lt;span style=&quot;color: rgba(0, 0, 0, 0); font-family: monospace; font-size: 0px; text-align: start; white-space: nowrap;&quot;&gt;%3CmxGraphModel%3E%3Croot%3E%3CmxCell%20id%3D%220%22%2F%3E%3CmxCell%20id%3D%221%22%20parent%3D%220%22%2F%3E%3CmxCell%20id%3D%222%22%20value%3D%22%26lt%3Bfont%20style%3D%26quot%3Bfont-size%3A%2023px%3B%26quot%3B%26gt%3B%E7%A1%AE%E5%AE%9A%E8%A1%8C%E7%A8%8B%26lt%3B%2Ffont%26gt%3B%22%20style%3D%22rounded%3D0%3BwhiteSpace%3Dwrap%3Bhtml%3D1%3B%22%20vertex%3D%221%22%20parent%3D%221%22%3E%3CmxGeometry%20x%3D%2250%22%20y%3D%22360%22%20width%3D%22130%22%20height%3D%2280%22%20as%3D%22geometry%22%2F%3E%3C%2FmxCell%3E%3C%2Froot%3E%3C%2FmxGraphModel%3E&lt;/span&gt;" style="rounded=0;whiteSpace=wrap;html=1;" vertex="1" parent="1">
          <mxGeometry x="750" y="190" width="130" height="80" as="geometry" />
        </mxCell>
        <mxCell id="-iC3halltujksd7gal8T-13" style="edgeStyle=orthogonalEdgeStyle;rounded=0;orthogonalLoop=1;jettySize=auto;html=1;exitX=0.5;exitY=0;exitDx=0;exitDy=0;entryX=0.5;entryY=1;entryDx=0;entryDy=0;" edge="1" parent="1" source="-iC3halltujksd7gal8T-9" target="-iC3halltujksd7gal8T-12">
          <mxGeometry relative="1" as="geometry" />
        </mxCell>
        <mxCell id="-iC3halltujksd7gal8T-17" style="edgeStyle=orthogonalEdgeStyle;rounded=0;orthogonalLoop=1;jettySize=auto;html=1;exitX=1;exitY=0.5;exitDx=0;exitDy=0;" edge="1" parent="1" source="-iC3halltujksd7gal8T-14">
          <mxGeometry relative="1" as="geometry">
            <mxPoint x="960" y="569.6923076923076" as="targetPoint" />
          </mxGeometry>
        </mxCell>
        <mxCell id="-iC3halltujksd7gal8T-14" value="&lt;font style=&quot;font-size: 23px;&quot;&gt;支付订单&lt;/font&gt;" style="rounded=0;whiteSpace=wrap;html=1;" vertex="1" parent="1">
          <mxGeometry x="750" y="530" width="130" height="80" as="geometry" />
        </mxCell>
        <mxCell id="-iC3halltujksd7gal8T-18" value="&lt;span style=&quot;font-size: 23px;&quot;&gt;买票成功&lt;/span&gt;" style="rounded=0;whiteSpace=wrap;html=1;" vertex="1" parent="1">
          <mxGeometry x="960" y="530" width="130" height="80" as="geometry" />
        </mxCell>
      </root>
    </mxGraphModel>
  </diagram>
</mxfile>
